<svg width="94" height="46" viewBox="0 0 94 46" fill="none" xmlns="http://www.w3.org/2000/svg">
<path d="M18.9549 29.0786L11.7646 22.281L18.9549 14.1143H24.3289L17.4647 22.281L24.3289 29.0786H18.9549Z" fill="white"/>
<path d="M11.3919 3.00003L82.1512 3L89.9997 10.8127L89.9997 41.7451" stroke="#00FFF7" stroke-width="2"/>
<path d="M82.9213 41.745L12.162 41.7451L4.31348 33.9324L4.31348 2.99998" stroke="#00FFF7" stroke-width="2"/>
<path d="M29.6577 28.7061V14.5061H34.7377C37.2977 14.5061 39.1177 15.8261 39.1177 18.1661C39.1177 19.4861 38.4777 20.6261 37.3977 21.2061V21.2461C38.9577 21.7061 39.6977 23.1461 39.6977 24.5861C39.6977 27.4261 37.4177 28.7061 34.7977 28.7061H29.6577ZM32.2377 20.3061H34.7377C35.8577 20.3061 36.4977 19.5061 36.4977 18.4861C36.4977 17.4661 35.8977 16.7261 34.6977 16.7261H32.2377V20.3061ZM32.2377 26.4861H34.9977C36.3177 26.4861 37.0577 25.6261 37.0577 24.4261C37.0577 23.2461 36.2977 22.3861 34.9977 22.3861H32.2377V26.4861ZM50.7497 28.7061L49.5497 25.0661H44.5697L43.3697 28.7061H40.7097L45.7097 14.5061H48.4097L53.4097 28.7061H50.7497ZM47.0897 16.9661H47.0497C47.0497 16.9661 46.7297 18.3661 46.4497 19.1661L45.1897 22.9661H48.9097L47.6497 19.1661C47.3897 18.3661 47.0897 16.9661 47.0897 16.9661ZM54.166 21.5461C54.166 17.4261 57.286 14.2661 61.466 14.2661C64.926 14.2661 66.706 16.2061 66.706 16.2061L65.466 18.1261C65.466 18.1261 63.846 16.6261 61.586 16.6261C58.586 16.6261 56.826 18.8661 56.826 21.5061C56.826 24.2061 58.646 26.5861 61.606 26.5861C64.066 26.5861 65.726 24.7861 65.726 24.7861L67.086 26.6461C67.086 26.6461 65.126 28.9461 61.506 28.9461C57.166 28.9461 54.166 25.7261 54.166 21.5461ZM69.4624 28.7061V14.5061H72.0424V20.2861H73.8824L77.2224 14.5061H80.0224L76.0024 21.2661V21.3061L80.2624 28.7061H77.3624L73.8824 22.5061H72.0424V28.7061H69.4624Z" fill="white"/>
</svg>
