<svg width="614" height="629" viewBox="0 0 614 629" fill="none" xmlns="http://www.w3.org/2000/svg">
<g filter="url(#filter0_dd_2025_1067)">
<mask id="mask0_2025_1067" style="mask-type:luminance" maskUnits="userSpaceOnUse" x="312" y="51" width="137" height="280">
<path d="M441.6 209.291C438.805 214.918 437.528 220.013 438.886 226.752C443.717 250.807 430.289 276.088 407.845 286.616C403.369 288.712 381.28 312.057 377.143 314.508C369.952 318.748 362.713 322.763 354.86 325.681C350.917 327.148 335.227 330.84 329.362 330.276C318.713 329.26 313.041 323.859 313.041 313.25C312.977 231.895 312.977 150.556 313.041 69.201C313.041 59.4145 319.133 53.4168 330.412 51.6917C333.321 51.2403 336.342 51.595 339.267 51.2564C344.325 50.6921 359.061 53.6587 364.717 56.593C380.827 64.9446 394.659 75.6662 402.011 92.8691C403.74 96.8998 406.908 99.2053 410.026 101.656C419.964 109.427 426.169 119.681 429.045 131.676C430.402 137.352 432.681 141.931 436.187 146.542C451.053 166.195 452.54 187.332 441.6 209.291Z" fill="white"/>
</mask>
<g mask="url(#mask0_2025_1067)">
<path d="M382.686 46.2276H296.883V190.768H382.686V46.2276Z" fill="#763F98"/>
<path d="M451.006 46.2275H380.424V190.768H451.006V46.2275Z" fill="#FDB924"/>
<path d="M380.424 190.768H309.843V335.308H380.424V190.768Z" fill="#BED731"/>
<path d="M451.006 190.768H380.424V335.308H451.006V190.768Z" fill="#20419A"/>
</g>
<path d="M253.885 323.795C237.241 316.395 223.506 307.834 214.49 293.355C212.647 290.405 210.369 288.873 207.283 287.551C186.018 278.474 171.459 255.048 172.994 233.04C173.495 225.834 175.208 220.658 184.386 222.238C189.088 223.044 194.049 222.545 198.896 222.335C205.651 222.061 211.322 222.528 216.606 228.51C222.827 235.539 234.236 233.895 240.117 226.801C245.951 219.771 244.981 210.033 237.823 203.794C230.681 197.587 221.405 197.974 214.926 205.487C212.13 208.727 209.351 209.84 205.295 209.743C195.875 209.517 186.454 209.517 177.05 209.743C172.978 209.84 170.829 208.534 169.261 204.568C160.988 183.56 163.347 164.067 177.211 146.22C180.233 142.334 182.56 138.432 183.626 133.563C186.713 119.391 193.984 107.783 205.974 99.3832C209.028 97.2388 210.434 94.1594 211.904 90.9671C218.901 75.9085 231.117 66.122 245.175 58.1735C250.071 55.4004 251.929 56.6902 251.606 62.2364C251.154 69.9915 250.831 77.7626 250.782 85.5338C250.75 88.8228 248.471 90.032 246.532 91.8539C239.342 98.5448 238.776 108.912 245.11 115.586C251.687 122.503 262.222 122.793 268.912 116.231C276.087 109.202 276.264 98.7544 268.298 92.2086C264.097 88.7583 263.273 85.1952 263.402 80.4551C263.612 72.6678 263.677 64.8806 263.467 57.0933C263.354 52.9175 264.889 51.1924 269.041 51.3697C273.065 51.5471 277.137 51.2085 281.144 51.5471C294.395 52.6757 300.406 59.1892 300.422 72.4099C300.47 112.958 300.438 153.491 300.454 194.04C300.454 196.087 300.454 198.135 300.454 201.295C294.653 198.618 291.599 194.475 287.947 191.154C281.968 185.736 276.168 180.158 270.156 174.773C265.131 170.259 260.768 166.244 261.463 158.021C262.19 149.428 252.511 142.463 243.753 143.463C234.187 144.559 228.241 152.298 229.291 162.278C230.212 171.097 238.663 178.304 247.373 176.514C251.881 175.579 254.305 176.917 257.229 179.658C269.963 191.605 282.76 203.487 295.752 215.16C299.258 218.32 300.567 221.69 300.535 226.366C300.357 254.29 300.47 282.215 300.438 310.139C300.422 326.617 284.408 336.097 269.252 328.858C266.602 327.6 266.634 325.827 266.634 323.698C266.618 311.88 266.747 300.063 266.569 288.261C266.521 284.827 268.217 283.134 270.657 281.102C278.834 274.331 279.399 263.641 272.37 256.354C265.745 249.502 255.452 249.598 248.698 256.58C241.701 263.819 242.153 273.412 250.071 280.667C252.091 282.521 254.03 283.924 253.998 287.148C253.836 298.934 253.933 310.72 253.933 323.811L253.885 323.795Z" stroke="white" stroke-width="5" stroke-miterlimit="10"/>
<path fill-rule="evenodd" clip-rule="evenodd" d="M237.645 216.595C237.645 222.448 232.943 227.188 227.126 227.188C221.308 227.188 216.606 222.448 216.606 216.595C216.606 210.742 221.308 206.002 227.126 206.002C232.943 206.002 237.645 210.742 237.645 216.595Z" fill="#20419A"/>
<path fill-rule="evenodd" clip-rule="evenodd" d="M267.782 104.125C267.782 109.978 263.08 114.718 257.262 114.718C251.445 114.718 246.743 109.978 246.743 104.125C246.743 98.2728 251.445 93.5327 257.262 93.5327C263.08 93.5327 267.782 98.2728 267.782 104.125Z" fill="#FDB924"/>
<path fill-rule="evenodd" clip-rule="evenodd" d="M256.099 159.684C256.099 165.537 251.396 170.277 245.579 170.277C239.762 170.277 235.06 165.537 235.06 159.684C235.06 153.832 239.762 149.091 245.579 149.091C251.396 149.091 256.099 153.832 256.099 159.684Z" fill="#BED731"/>
<path fill-rule="evenodd" clip-rule="evenodd" d="M271.256 268.108C271.256 273.96 266.553 278.701 260.736 278.701C254.919 278.701 250.217 273.96 250.217 268.108C250.217 262.255 254.919 257.515 260.736 257.515C266.553 257.515 271.256 262.255 271.256 268.108Z" fill="#763F98"/>
<path d="M441.6 209.291C438.805 214.918 437.528 220.013 438.886 226.752C443.717 250.807 430.289 276.088 407.845 286.616C403.369 288.712 381.28 312.057 377.143 314.508C369.952 318.748 362.713 322.763 354.86 325.681C350.917 327.148 335.227 330.84 329.362 330.276C318.713 329.26 313.041 323.859 313.041 313.25C312.977 231.895 312.977 150.556 313.041 69.201C313.041 59.4145 319.133 53.4168 330.412 51.6917C333.321 51.2403 336.342 51.595 339.267 51.2564C344.325 50.6921 359.061 53.6587 364.717 56.593C380.827 64.9446 394.659 75.6662 402.011 92.8691C403.74 96.8998 406.908 99.2053 410.026 101.656C419.964 109.427 426.169 119.681 429.045 131.676C430.402 137.352 432.681 141.931 436.187 146.542C451.053 166.195 452.54 187.332 441.6 209.291Z" stroke="white" stroke-width="5" stroke-miterlimit="10"/>
<path d="M53.1136 450.745L76.9385 361.318H100.763L106.626 399.09C107.499 404.843 108.123 413.848 108.123 413.848H108.372C108.372 413.848 112.738 404.968 115.857 399.09L136.189 361.318H160.138L150.035 450.745H128.58L133.694 410.471C134.567 403.717 136.563 395.463 136.563 395.463H136.313C136.313 395.463 131.573 404.968 128.455 410.471L113.986 436.361H95.0254L90.5349 410.471C89.537 404.843 88.6638 395.212 88.6638 395.212H88.4143C88.4143 395.212 87.2917 403.717 85.5454 410.471L75.0674 450.745H53.1136Z" fill="white"/>
<path d="M167.169 424.104C167.169 401.716 183.011 384.831 204.216 384.831C222.428 384.831 231.659 395.212 231.659 410.096C231.659 415.974 229.289 422.728 229.289 422.728H188.749C188.749 429.983 193.364 434.235 201.347 434.235C210.703 434.235 220.432 427.731 220.432 427.731L225.921 443.866C225.921 443.866 214.57 452.245 199.975 452.245C178.022 452.245 167.169 439.238 167.169 424.104ZM191.618 410.346H210.578C210.578 410.346 210.703 408.845 210.703 408.095C210.703 404.093 208.208 401.091 203.842 401.091C197.605 401.091 193.614 405.218 191.618 410.346Z" fill="white"/>
<path d="M235.84 450.745L248.314 386.332H269.145L268.147 391.335C267.773 393.336 266.9 395.963 266.9 395.963H267.149C270.642 391.46 277.253 384.831 286.608 384.831C295.465 384.831 301.452 388.459 303.697 395.713H303.947C308.063 390.335 316.296 384.831 325.402 384.831C336.379 384.831 343.738 389.584 343.738 402.467C343.738 405.093 343.364 408.095 342.74 411.472L335.256 450.745H313.676L321.036 413.223C321.41 411.222 321.41 410.471 321.41 409.471C321.41 406.469 320.288 404.468 317.169 404.468C309.311 404.468 303.573 413.723 301.577 424.104L296.338 450.745H274.758L282.118 413.223C282.492 411.222 282.492 410.471 282.492 409.471C282.492 406.469 281.369 404.468 278.251 404.468C270.642 404.468 264.655 413.723 262.659 424.104L257.42 450.745H235.84Z" fill="white"/>
<path d="M351.346 423.354C351.346 400.716 371.304 384.831 391.387 384.831C410.721 384.831 424.692 396.213 424.692 413.723C424.692 436.486 404.609 452.245 384.651 452.245C365.317 452.245 351.346 440.989 351.346 423.354ZM373.175 422.353C373.175 429.857 378.165 434.235 385.025 434.235C393.632 434.235 402.863 426.856 402.863 415.099C402.863 407.47 397.873 402.842 391.137 402.842C382.655 402.842 373.175 410.596 373.175 422.353Z" fill="white"/>
<path d="M429.281 450.745L441.754 386.332H462.461L460.34 397.214C459.966 399.34 459.342 401.216 459.342 401.216H459.467C463.583 392.461 472.689 385.207 481.795 385.207C483.916 385.207 485.537 385.457 485.537 385.457L481.421 406.719C481.421 406.719 479.799 406.344 477.18 406.344C470.693 406.344 458.469 411.472 455.101 428.857L450.86 450.745H429.281Z" fill="white"/>
<path d="M484.398 456.998C484.398 456.998 487.018 458.999 490.76 458.999C494.502 458.999 498.992 457.999 502.36 452.496L504.231 449.494L489.138 386.332H511.591L516.83 418.226C517.454 421.728 517.453 427.731 517.453 427.731H517.703C517.703 427.731 519.948 422.103 521.57 418.601L535.915 386.332H560.114L519.948 457.624C511.965 471.757 500.863 477.01 491.882 477.01C482.402 477.01 475.043 472.007 475.043 472.007L484.398 456.998Z" fill="white"/>
<path d="M104.63 575.817L128.455 486.39H152.28L158.143 524.162C159.016 529.915 159.639 538.921 159.639 538.921H159.889C159.889 538.921 164.255 530.04 167.373 524.162L187.705 486.39H211.655L201.551 575.817H180.096L185.211 535.544C186.084 528.79 188.08 520.535 188.08 520.535H187.83C187.83 520.535 183.09 530.04 179.972 535.544L165.502 561.434H146.542L142.051 535.544C141.054 529.915 140.18 520.285 140.18 520.285H139.931C139.931 520.285 138.808 528.79 137.062 535.544L126.584 575.817H104.63Z" fill="white"/>
<path d="M215.817 560.683C215.817 541.172 240.64 535.669 257.105 535.669H257.978C258.103 534.793 258.228 533.668 258.228 533.292C258.228 529.04 255.234 527.414 250.12 527.414C242.012 527.414 231.534 533.292 231.534 533.292L226.919 517.033C226.919 517.033 240.141 509.904 254.361 509.904C265.213 509.904 279.807 514.156 279.807 530.416C279.807 532.292 279.558 534.418 279.184 536.669L271.699 575.817H251.991L252.739 571.94C253.113 569.813 253.862 567.937 253.862 567.937H253.612C253.612 567.937 246.627 577.318 234.652 577.318C225.048 577.318 215.817 571.564 215.817 560.683ZM237.521 556.681C237.521 559.057 239.143 560.808 242.76 560.808C248.373 560.808 254.486 554.68 255.484 549.427L255.733 548.051H253.737C249.122 548.051 237.521 549.051 237.521 556.681Z" fill="white"/>
<path d="M293.246 555.805C293.246 554.304 293.495 552.553 293.87 550.802L298.111 529.415H290.003L293.246 512.53H302.102L305.72 494.02H326.426L322.809 512.53H336.405L333.162 529.415H319.565L316.073 547.801C315.823 548.926 315.699 550.552 315.699 551.178C315.699 556.431 320.439 557.431 325.179 557.431C327.05 557.431 328.547 557.306 328.547 557.306L324.929 576.067C324.929 576.067 321.686 576.442 319.191 576.442C305.096 576.442 293.246 570.689 293.246 555.805Z" fill="white"/>
<path d="M338.67 547.801C338.67 529.415 354.387 509.904 378.835 509.904C397.047 509.904 405.03 519.409 405.03 519.409L394.178 532.917C394.178 532.917 388.315 527.914 379.833 527.914C367.734 527.914 360.499 538.045 360.499 546.55C360.499 553.179 364.49 559.307 373.721 559.307C382.827 559.307 392.93 551.553 392.93 551.553L398.419 567.937C398.419 567.937 387.193 577.318 370.727 577.318C349.522 577.318 338.67 564.185 338.67 547.801Z" fill="white"/>
<path d="M406.369 575.817L423.707 486.39H445.287L439.799 514.657C439.175 517.908 438.551 520.16 438.551 520.16H438.801C442.418 514.406 450.9 509.904 459.133 509.904C470.235 509.904 479.34 514.782 479.34 528.164C479.34 530.291 478.966 532.667 478.467 535.293L470.609 575.817H449.029L456.264 538.796C456.513 537.295 456.638 535.919 456.638 535.043C456.638 531.166 454.767 529.54 450.9 529.54C442.418 529.54 435.183 537.92 433.437 547.3L427.949 575.817H406.369Z" fill="white"/>
</g>
<defs>
<filter id="filter0_dd_2025_1067" x="-17.8864" y="-9.74768" width="649" height="664" filterUnits="userSpaceOnUse" color-interpolation-filters="sRGB">
<feFlood flood-opacity="0" result="BackgroundImageFix"/>
<feColorMatrix in="SourceAlpha" type="matrix" values="0 0 0 0 0 0 0 0 0 0 0 0 0 0 0 0 0 0 127 0" result="hardAlpha"/>
<feOffset dy="4"/>
<feGaussianBlur stdDeviation="2"/>
<feColorMatrix type="matrix" values="0 0 0 0 0 0 0 0 0 0 0 0 0 0 0 0 0 0 0.3 0"/>
<feBlend mode="normal" in2="BackgroundImageFix" result="effect1_dropShadow_2025_1067"/>
<feColorMatrix in="SourceAlpha" type="matrix" values="0 0 0 0 0 0 0 0 0 0 0 0 0 0 0 0 0 0 127 0" result="hardAlpha"/>
<feMorphology radius="6" operator="dilate" in="SourceAlpha" result="effect2_dropShadow_2025_1067"/>
<feOffset dy="8"/>
<feGaussianBlur stdDeviation="6"/>
<feColorMatrix type="matrix" values="0 0 0 0 0 0 0 0 0 0 0 0 0 0 0 0 0 0 0.15 0"/>
<feBlend mode="normal" in2="effect1_dropShadow_2025_1067" result="effect2_dropShadow_2025_1067"/>
<feBlend mode="normal" in="SourceGraphic" in2="effect2_dropShadow_2025_1067" result="shape"/>
</filter>
</defs>
</svg>
