<svg width="88" height="87" viewBox="0 0 88 87" fill="none" xmlns="http://www.w3.org/2000/svg">
<mask id="mask0_650_920" style="mask-type:luminance" maskUnits="userSpaceOnUse" x="46" y="2" width="41" height="83">
<path d="M84.3449 48.9813C83.5142 50.6534 83.1349 52.1673 83.5382 54.1699C84.9739 61.318 80.9838 68.8302 74.3144 71.9586C72.9844 72.5815 66.4207 79.5187 65.1915 80.2469C63.0548 81.507 60.9037 82.6999 58.5702 83.5671C57.3986 84.003 52.7363 85.1001 50.9934 84.9325C47.8291 84.6306 46.1438 83.0257 46.1438 79.8732C46.1246 55.6982 46.1246 31.528 46.1438 7.35298C46.1438 4.44488 47.954 2.66266 51.3055 2.15003C52.1697 2.01588 53.0676 2.12128 53.9367 2.02067C55.4396 1.85299 59.8186 2.73452 61.4991 3.60647C66.2863 6.08817 70.3964 9.27414 72.5811 14.3861C73.0949 15.5838 74.036 16.2689 74.9627 16.9971C77.9156 19.3063 79.7594 22.3534 80.6141 25.9178C81.0174 27.6042 81.6944 28.9649 82.7364 30.3351C87.1538 36.1752 87.5955 42.4561 84.3449 48.9813Z" fill="white"/>
</mask>
<g mask="url(#mask0_650_920)">
<path d="M66.8387 0.526337H41.3425V43.477H66.8387V0.526337Z" fill="#763F98"/>
<path d="M87.1396 0.526337H66.1665V43.477H87.1396V0.526337Z" fill="#FDB924"/>
<path d="M66.1665 43.4771H45.1934V86.4278H66.1665V43.4771Z" fill="#BED731"/>
<path d="M87.1396 43.4771H66.1665V86.4278H87.1396V43.4771Z" fill="#20419A"/>
</g>
<path d="M28.5654 83.0066C23.6199 80.8076 19.5385 78.2636 16.8593 73.9614C16.3119 73.0846 15.6349 72.6295 14.7178 72.2366C8.39897 69.5393 4.07278 62.5781 4.52892 56.0385C4.67777 53.897 5.18674 52.3591 7.91401 52.8286C9.31126 53.0681 10.7853 52.9196 12.2258 52.8573C14.2328 52.7759 15.9182 52.9148 17.4883 54.6923C19.3369 56.7811 22.7268 56.2924 24.4745 54.1844C26.2079 52.0956 25.9198 49.2019 23.7927 47.3478C21.6704 45.5033 18.9143 45.6182 16.9889 47.8508C16.1583 48.8138 15.3324 49.1444 14.1272 49.1156C11.3279 49.0485 8.52861 49.0485 5.73411 49.1156C4.52412 49.1444 3.88552 48.7563 3.41977 47.5777C0.961379 41.3352 1.6624 35.5429 5.78213 30.2394C6.68002 29.0848 7.37144 27.9253 7.68834 26.4785C8.60543 22.2673 10.7661 18.8178 14.3289 16.3217C15.2364 15.6845 15.6541 14.7695 16.091 13.8209C18.1701 9.34613 21.8001 6.43804 25.9774 4.07611C27.4323 3.25207 27.9845 3.63535 27.8884 5.28343C27.754 7.58786 27.658 9.89709 27.6435 12.2063C27.6339 13.1837 26.9569 13.543 26.3807 14.0844C24.2441 16.0726 24.076 19.1532 25.9582 21.1366C27.9124 23.1919 31.043 23.2781 33.0309 21.3282C35.1628 19.2394 35.2156 16.1349 32.8484 14.1898C31.6 13.1645 31.3551 12.1057 31.3936 10.6972C31.456 8.38316 31.4752 6.06914 31.4128 3.75512C31.3791 2.51427 31.8353 2.00164 33.0693 2.05434C34.2649 2.10704 35.4749 2.00643 36.6656 2.10704C40.6029 2.44241 42.3891 4.37794 42.3939 8.3065C42.4083 20.3557 42.3987 32.4001 42.4035 44.4493C42.4035 45.0577 42.4035 45.6662 42.4035 46.6052C40.6797 45.8099 39.7722 44.5786 38.6871 43.5917C36.9105 41.9819 35.1868 40.3243 33.4006 38.7241C31.9073 37.3826 30.6109 36.1897 30.8174 33.7463C31.0334 31.1928 28.1573 29.1231 25.5549 29.4201C22.7124 29.7459 20.9454 32.0455 21.2575 35.0111C21.5312 37.6318 24.0424 39.7733 26.6304 39.2415C27.9701 38.9636 28.6903 39.3613 29.5594 40.1758C33.343 43.7258 37.1458 47.2567 41.0062 50.7254C42.0482 51.6644 42.4371 52.6657 42.4275 54.0551C42.3747 62.353 42.4083 70.6508 42.3987 78.9487C42.3939 83.8451 37.6356 86.6621 33.1317 84.511C32.3443 84.1373 32.3539 83.6103 32.3539 82.9779C32.3491 79.4661 32.3875 75.9544 32.3347 72.4474C32.3203 71.427 32.8244 70.9239 33.5494 70.3203C35.979 68.3081 36.1471 65.1317 34.0584 62.9662C32.0898 60.93 29.0312 60.9588 27.0241 63.0333C24.9451 65.1844 25.0795 68.035 27.4323 70.1909C28.0325 70.7419 28.6087 71.1587 28.5991 72.1169C28.551 75.619 28.5798 79.1212 28.5798 83.0114L28.5654 83.0066Z" stroke="white" stroke-width="3" stroke-miterlimit="10"/>
<path fill-rule="evenodd" clip-rule="evenodd" d="M23.7399 51.1517C23.7399 52.8908 22.3426 54.2994 20.6141 54.2994C18.8855 54.2994 17.4883 52.8908 17.4883 51.1517C17.4883 49.4126 18.8855 48.0041 20.6141 48.0041C22.3426 48.0041 23.7399 49.4126 23.7399 51.1517Z" fill="#20419A"/>
<path fill-rule="evenodd" clip-rule="evenodd" d="M32.695 17.7309C32.695 19.47 31.2977 20.8785 29.5692 20.8785C27.8406 20.8785 26.4434 19.47 26.4434 17.7309C26.4434 15.9918 27.8406 14.5833 29.5692 14.5833C31.2977 14.5833 32.695 15.9918 32.695 17.7309Z" fill="#FDB924"/>
<path fill-rule="evenodd" clip-rule="evenodd" d="M29.2233 34.2404C29.2233 35.9795 27.826 37.388 26.0975 37.388C24.3689 37.388 22.9717 35.9795 22.9717 34.2404C22.9717 32.5013 24.3689 31.0928 26.0975 31.0928C27.826 31.0928 29.2233 32.5013 29.2233 34.2404Z" fill="#BED731"/>
<path fill-rule="evenodd" clip-rule="evenodd" d="M33.7272 66.459C33.7272 68.1981 32.3299 69.6066 30.6014 69.6066C28.8728 69.6066 27.4756 68.1981 27.4756 66.459C27.4756 64.7199 28.8728 63.3113 30.6014 63.3113C32.3299 63.3113 33.7272 64.7199 33.7272 66.459Z" fill="#763F98"/>
<path d="M84.3449 48.9813C83.5142 50.6534 83.1349 52.1673 83.5382 54.1699C84.9739 61.318 80.9838 68.8302 74.3144 71.9586C72.9844 72.5815 66.4207 79.5187 65.1915 80.2469C63.0548 81.507 60.9037 82.6999 58.5702 83.5671C57.3986 84.003 52.7363 85.1001 50.9934 84.9325C47.8291 84.6306 46.1438 83.0257 46.1438 79.8732C46.1246 55.6982 46.1246 31.528 46.1438 7.35298C46.1438 4.44488 47.954 2.66266 51.3055 2.15003C52.1697 2.01588 53.0676 2.12128 53.9367 2.02067C55.4396 1.85299 59.8186 2.73452 61.4991 3.60647C66.2863 6.08817 70.3964 9.27414 72.5811 14.3861C73.0949 15.5838 74.036 16.2689 74.9627 16.9971C77.9156 19.3063 79.7594 22.3534 80.6141 25.9178C81.0174 27.6042 81.6944 28.9649 82.7364 30.3351C87.1538 36.1752 87.5955 42.4561 84.3449 48.9813Z" stroke="white" stroke-width="3" stroke-miterlimit="10"/>
</svg>
