<svg width="190" height="81" viewBox="0 0 190 81" fill="none" xmlns="http://www.w3.org/2000/svg">
<path d="M0.244202 80.5413V0.545074H20.8241L32.0744 29.9423C32.6415 31.424 33.1903 33.0155 33.7208 34.7168C34.2513 36.418 34.7818 38.101 35.3123 39.7474C35.8428 41.4121 36.3184 43.0219 36.7391 44.5768C37.1599 46.1317 37.544 47.5403 37.9099 48.8208C37.4892 43.2414 37.0318 37.973 36.5745 33.0704C36.1172 28.1495 35.8794 24.1067 35.8794 20.9237V0.545074H56.6787V80.5413H35.9342L25.0864 51.1441C22.818 45.0524 20.9704 39.473 19.5435 34.3875C19.9643 39.9669 20.2936 44.8695 20.4948 49.0769C20.7143 53.2844 20.8058 56.9796 20.8058 60.1626V80.5413H0.244202Z" fill="white"/>
<path d="M83.2954 80.5413H61.7643V0.545074H83.2954V80.5413Z" fill="white"/>
<path d="M145.931 80.5412H123.12L108.266 43.6073C108.412 45.0158 108.54 46.4061 108.631 47.7415C108.741 49.0769 108.796 50.4672 108.796 51.8758V80.5229H87.265V0.526774H108.796V27.6922C108.796 28.8995 108.741 30.0703 108.631 31.2411C108.522 32.4118 108.394 33.6009 108.266 34.7899L121.528 0.508484H143.809L126.504 39.1254L145.931 80.5046V80.5412Z" fill="white"/>
<path d="M149.334 80.5413V0.545074H189.432V19.3322H170.865V31.113H187.53V49.1501H170.865V61.3517H189.432V80.5596H149.334V80.5413Z" fill="white"/>
</svg>
