<svg width="250" height="96" viewBox="0 0 250 96" fill="none" xmlns="http://www.w3.org/2000/svg">
<path d="M157.759 44.6619V44.6081C157.759 40.0498 154.399 37.374 149.17 37.374H141.083C140.311 37.374 139.62 37.9926 139.62 38.7187V57.8931H145.337V52.7163C145.337 52.3801 145.675 52.0305 145.987 52.0305H148.019L152.001 57.8931H158.626L153.857 51.0086C156.255 49.8388 157.745 47.7008 157.745 44.6485L157.759 44.6619ZM152.042 44.9174C152.042 46.531 150.809 47.5798 148.764 47.5798H145.35V43.0618C145.35 42.5778 145.756 42.1744 146.244 42.1744H148.737C150.809 42.1744 152.042 43.1022 152.042 44.8636V44.9174Z" fill="white"/>
<path d="M171.073 36.6412C164.799 36.6412 160.088 41.559 160.088 47.6405V47.6821C160.088 53.7636 164.733 58.626 171.019 58.626C177.306 58.626 182.017 53.6943 182.017 47.6405V47.5713C182.017 41.5036 177.346 36.6412 171.073 36.6412ZM176.251 47.6821C176.251 50.7297 174.196 53.3341 171.073 53.3341C167.949 53.3341 165.867 50.6743 165.867 47.6405V47.5713C165.867 44.5236 167.936 41.9192 171.019 41.9192C174.102 41.9192 176.251 44.579 176.251 47.6267V47.6682V47.6821Z" fill="white"/>
<path d="M199.69 38.6926V48.2323L191.09 37.374H187.168C186.345 37.374 185.673 38.0333 185.673 38.8406V57.8931H191.406V46.6446L200.348 57.8931H205.409V37.374H201.158C200.376 37.374 199.676 37.9526 199.676 38.6926" fill="white"/>
<path d="M118.421 38.7868V42.3659H124.663V57.8931H130.44V43.0117C130.44 42.6619 130.741 42.3659 131.164 42.3659H136.696V37.374H119.896C119.09 37.374 118.421 38.0602 118.421 38.7868Z" fill="white"/>
<path d="M98.6843 38.7868V57.8931H115.483V53.0493H104.412V50.587C104.412 50.1968 104.768 49.8066 105.138 49.8066H114.195V45.326H104.426V42.9983C104.426 42.635 104.741 42.2179 105.097 42.2179H115.497V37.374H100.178C99.3832 37.374 98.6843 38.0199 98.6843 38.8003" fill="white"/>
<path d="M242.187 45.0091C239.277 44.3408 238.563 43.9231 238.563 42.9624V42.8928C238.563 42.127 239.249 41.5283 240.65 41.5283C241.94 41.5283 243.313 41.8764 244.686 42.5447C244.686 42.5447 244.988 42.6978 245.126 42.7674C245.524 42.9484 245.977 43.1016 246.554 42.9763C246.952 42.8928 247.254 42.5168 247.611 42.0713L249.423 39.4676C247.158 37.6159 244.384 36.6412 240.814 36.6412C235.789 36.6412 232.714 39.4955 232.714 43.4497V43.5054C232.714 47.8773 236.16 49.1443 240.609 50.1885C243.451 50.8429 244.123 51.3302 244.123 52.2213V52.277C244.123 53.1959 243.3 53.725 241.734 53.725C239.908 53.725 238.137 53.2238 236.503 52.2631C236.023 52.0264 235.446 51.7061 234.705 51.8732C234.402 51.9428 234.155 52.1517 233.908 52.458L231.725 55.1173C234.293 57.4286 237.835 58.626 241.542 58.626C246.622 58.626 250 56.0502 250 51.7201V51.6644C250 47.6963 247.007 46.109 242.201 45.0369" fill="white"/>
<path d="M213.736 57.8931L214.798 55.2963C214.963 54.8791 215.321 54.4486 215.763 54.3813H223.275L224.75 57.8931H230.994L222.103 37.374H217.334C216.631 37.4548 216.341 37.818 216.093 38.3159L207.602 57.8931H213.736ZM219.264 44.115L221.607 49.9546H216.879L219.264 44.115Z" fill="white"/>
<path d="M83.9785 57.8931C83.9785 56.3731 83.9785 52.916 83.9785 52.7142C83.9785 52.4317 84.1833 52.1492 84.4701 52.0551C84.593 52.0147 84.7295 52.0282 84.8661 52.0282C85.6034 52.0282 86.3544 52.0282 87.0917 52.0282C88.6347 52.0282 90.1777 51.9071 91.6387 51.3825C93.1817 50.8444 94.5744 49.9028 95.4483 48.5173C96.3085 47.1587 96.5953 45.4907 96.4587 43.9034C96.3632 42.7196 96.0081 41.5493 95.3254 40.5674C93.878 38.4689 91.311 37.5676 88.8259 37.4062C88.4982 37.3793 88.1431 37.3658 87.8291 37.3793C86.846 37.3793 85.8628 37.3793 84.8661 37.3793H80.7834C79.8139 37.3658 78.2163 37.3255 78.2163 38.711C78.2163 39.3701 78.2163 40.0293 78.2163 40.6884V57.8931H83.9785ZM90.7238 44.9122C90.7238 46.5264 89.4813 47.5757 87.4194 47.5757H83.9785V43.0559C83.9785 42.5716 84.3881 42.1681 84.8797 42.1681H87.3921C89.4813 42.1681 90.7238 43.0963 90.7238 44.8584V44.9122Z" fill="white"/>
<path d="M33.394 96C27.332 96 21.386 94.3488 16.2067 91.2339C6.21345 85.2183 0 74.2313 0 62.566C0 56.6396 1.58679 50.7936 4.58209 45.6616C4.92084 45.0636 7.31886 40.9134 25.255 9.79993C29.5518 2.36519 33.3939 0.258832 43.1287 0H43.2267H81.8713L58.8718 39.878L62.0008 45.3135C65.1298 50.508 66.7879 56.479 66.7879 62.566C66.7879 81.0056 51.8025 96 33.394 96Z" fill="white"/>
<path d="M49.7075 62.2901C49.7075 71.1896 42.348 78.4122 33.2601 78.4122C24.1722 78.4122 16.8127 71.1983 16.8127 62.2901C16.8127 53.3819 24.1722 46.168 33.2601 46.168C42.348 46.168 49.7075 53.3819 49.7075 62.2901Z" fill="#00A99D"/>
<path d="M54.4554 39.567L75.2925 3.66412H43.1367C34.1709 3.90359 31.818 5.65971 28.4046 11.5312C28.4046 11.5312 7.73688 47.1679 7.71906 47.1857C5.1523 51.5582 3.65503 56.6847 3.65503 62.1038C3.65503 72.8445 9.42132 82.2371 18.0396 87.399C22.4957 90.0687 27.7184 91.6031 33.2975 91.6031C49.6695 91.6031 62.9489 78.3967 62.9489 62.1038C62.9489 56.525 61.3892 51.301 58.6799 46.8487L54.4465 39.5581L54.4554 39.567ZM43.3061 11.2119H62.1557L50.0794 32.0281L45.9619 24.9327L38.3062 11.744C39.4114 11.3715 40.9086 11.2208 43.2971 11.2208M33.2975 84.1085C27.8788 84.1085 22.9146 82.1573 19.0645 78.9377C14.2518 74.9022 11.2038 68.8711 11.2038 62.1216C11.2038 58.0594 12.3089 54.2456 14.2429 50.9817C14.2429 50.9817 33.2262 18.263 33.2975 18.1388L40.7126 30.8928V30.9017L52.3521 50.9729C52.3521 50.9729 52.3521 50.9817 52.3521 50.9906C54.2861 54.2545 55.3912 58.0594 55.3912 62.1216C55.3912 74.2636 45.4985 84.1085 33.2975 84.1085Z" fill="#00A99D"/>
</svg>
