<svg width="190" height="91" viewBox="0 0 190 91" fill="none" xmlns="http://www.w3.org/2000/svg">
<path d="M38.6416 90.8428H14.0922V21.8774H0.244202V0.09021H52.4713V21.8774H38.6233V90.8428H38.6416Z" fill="white"/>
<path d="M120.357 90.8428H93.8871L80.2952 53.6527V90.8428H55.8555V0.09021H79.5635C86.1491 0.09021 91.7468 0.840219 96.3567 2.32197C100.967 3.80372 104.717 5.87085 107.607 8.52336C110.497 11.1759 112.601 14.3589 113.918 18.0907C115.235 21.8225 115.912 25.9385 115.912 30.4203C115.912 41.4145 111.302 48.9879 102.064 53.1588L120.357 90.8245V90.8428ZM80.277 41.7438H81.9599C85.1612 41.7438 87.6125 40.7926 89.2955 38.9084C90.9785 37.0242 91.82 34.3534 91.82 30.896C91.82 27.4385 90.9785 24.8043 89.2955 22.9567C87.6125 21.1091 85.1612 20.1944 81.9599 20.1944H80.277V41.7438Z" fill="white"/>
<path d="M189.451 90.8428H162.249L157.913 78.9339C157.108 76.6838 156.413 74.5252 155.81 72.4398C155.206 70.3544 154.712 68.397 154.31 66.5494C153.834 68.397 153.285 70.3361 152.681 72.3849C152.078 74.4338 151.328 76.6107 150.45 78.9339L145.876 90.8428H119.15L141.175 43.7927L120.357 0.10849H147.669L151.767 12.3832C152.169 13.5174 152.572 14.8528 152.974 16.4077C153.377 17.981 153.816 19.6822 154.291 21.5298C154.767 19.609 155.243 17.8712 155.682 16.3529C156.121 14.8345 156.505 13.554 156.816 12.5113L160.419 0.10849H187.859L167.151 43.7927L189.414 90.8428H189.451Z" fill="white"/>
</svg>
