<svg width="666" height="88" viewBox="0 0 666 88" fill="none" xmlns="http://www.w3.org/2000/svg">
<g clip-path="url(#clip0_640_5145)">
<path fill-rule="evenodd" clip-rule="evenodd" d="M287.71 43.3799C287.71 37.8822 292.132 33.4222 297.584 33.4222C303.036 33.4222 307.457 37.8785 307.457 43.3799C307.457 48.8812 303.036 53.3375 297.584 53.3375C292.132 53.3375 287.71 48.8812 287.71 43.3799Z" fill="#FAB520"/>
<path fill-rule="evenodd" clip-rule="evenodd" d="M598.308 43.3799C598.308 37.8822 602.729 33.4222 608.181 33.4222C613.633 33.4222 618.055 37.8785 618.055 43.3799C618.055 48.8812 613.633 53.3375 608.181 53.3375C602.729 53.3375 598.308 48.8812 598.308 43.3799Z" fill="#754198"/>
<path fill-rule="evenodd" clip-rule="evenodd" d="M174.167 43.3799C174.167 37.8822 178.589 33.4222 184.041 33.4222C189.493 33.4222 193.914 37.8785 193.914 43.3799C193.914 48.8812 189.493 53.3375 184.041 53.3375C178.589 53.3375 174.167 48.8812 174.167 43.3799Z" fill="#BBD531"/>
<path fill-rule="evenodd" clip-rule="evenodd" d="M47.9417 43.3799C47.9417 37.8822 52.3629 33.4222 57.8151 33.4222C63.2672 33.4222 67.6885 37.8785 67.6885 43.3799C67.6885 48.8812 63.2672 53.3375 57.8151 53.3375C52.3629 53.3375 47.9417 48.8775 47.9417 43.3799Z" fill="#1F4694"/>
<path d="M89.8172 42.7837L80.45 26.4637H88.3472L91.5627 33.1168C92.4745 35.0119 93.2672 37.0984 93.2672 37.0984H93.3453C93.3453 37.0984 94.138 35.0119 95.0498 33.1168L98.2243 26.4637H106.122L96.758 42.7837V54.1139H89.8135V42.7837H89.8172Z" fill="white"/>
<path d="M116.397 33.735C122.865 33.735 128.023 37.9485 128.023 44.2152C128.023 50.482 122.865 54.5776 116.438 54.5776C110.011 54.5776 104.853 50.4415 104.853 44.2152C104.853 37.9889 110.011 33.735 116.397 33.735ZM116.438 49.01C118.939 49.01 121.079 47.1922 121.079 44.2152C121.079 41.2382 118.935 39.3026 116.438 39.3026C113.941 39.3026 111.797 41.1977 111.797 44.2152C111.797 47.2327 113.941 49.01 116.438 49.01Z" fill="white"/>
<path d="M131.313 34.1987H138.176V45.8785C138.176 47.7331 138.931 48.5095 140.357 48.5095C143.293 48.5095 144.681 45.9962 144.681 43.0192V34.2023H151.544V54.1176H144.957V52.377C144.957 51.7183 145.035 51.1406 145.035 51.1406H144.957C143.844 53.2676 141.306 54.5813 138.567 54.5813C134.521 54.5813 131.306 52.7266 131.306 47.1186V34.1987H131.313Z" fill="white"/>
<path d="M216.069 26.4637H223.609L227.736 38.1435C228.373 39.9208 229.165 42.7065 229.165 42.7065H229.244C229.244 42.7065 230.036 39.9208 230.673 38.1435L234.8 26.4637H242.34L244.64 54.1139H237.695L236.821 41.6614C236.661 39.5749 236.821 37.0211 236.821 37.0211H236.743C236.743 37.0211 235.79 39.9208 235.157 41.6614L232.18 49.665H226.229L223.252 41.6614C222.615 39.9208 221.666 37.0211 221.666 37.0211H221.588C221.588 37.0211 221.748 39.5749 221.588 41.6614L220.714 54.1139H213.732L216.073 26.4637H216.069Z" fill="white"/>
<path d="M258.797 33.735C264.829 33.735 268.238 37.8344 268.238 43.3652C268.238 44.0239 268.078 45.4516 268.078 45.4516H255.183C255.7 47.8877 257.762 49.01 259.943 49.01C262.879 49.01 265.578 47.0008 265.578 47.0008L268.116 51.6816C268.116 51.6816 264.822 54.5813 259.388 54.5813C252.087 54.5813 248.16 49.4369 248.16 44.1416C248.16 38.3017 252.206 33.7387 258.793 33.7387L258.797 33.735ZM261.339 41.6246C261.339 40.1159 260.267 38.7617 258.64 38.7617C256.657 38.7617 255.704 40.1527 255.347 41.6246H261.339Z" fill="white"/>
<path d="M326.943 45.4884C326.943 45.4884 330.159 48.3513 333.728 48.3513C335.157 48.3513 336.705 47.8104 336.705 46.1471C336.705 42.861 323.929 42.9751 323.929 34.4673C323.929 29.3634 328.331 26 333.966 26C340.077 26 343.091 29.1315 343.091 29.1315L340.155 34.6623C340.155 34.6623 337.297 32.2263 333.888 32.2263C332.459 32.2263 330.873 32.8445 330.873 34.39C330.873 37.8711 343.649 37.2529 343.649 45.9925C343.649 50.596 340.039 54.5776 333.649 54.5776C327.259 54.5776 323.292 50.6328 323.292 50.6328L326.943 45.4884Z" fill="white"/>
<path d="M347.338 34.1987H354.2V45.8785C354.2 47.7331 354.956 48.5095 356.381 48.5095C359.317 48.5095 360.706 45.9962 360.706 43.0192V34.2023H367.568V54.1176H360.981V52.377C360.981 51.7183 361.059 51.1406 361.059 51.1406H360.981C359.868 53.2676 357.33 54.5813 354.591 54.5813C350.546 54.5813 347.33 52.7266 347.33 47.1186V34.1987H347.338Z" fill="white"/>
<path d="M373.995 47.1517C373.995 47.1517 376.258 49.1609 379.195 49.1609C380.225 49.1609 381.219 48.8885 381.219 48.2335C381.219 46.493 371.658 46.3016 371.658 39.803C371.658 36.0533 375.35 33.7313 380.069 33.7313C384.788 33.7313 387.252 36.0128 387.252 36.0128L384.911 40.7708C384.911 40.7708 382.927 39.148 380.069 39.148C379.038 39.148 378.045 39.4203 378.045 40.1158C378.045 41.6246 387.605 41.8564 387.605 48.274C387.605 51.6779 384.509 54.5776 379.232 54.5776C373.955 54.5776 371.059 51.6374 371.059 51.6374L373.995 47.1517Z" fill="white"/>
<path d="M392.365 39.7663H389.745V34.5446H392.563V28.8224H399.228V34.5446H403.512V39.7663H399.228V45.8748C399.228 48.1195 401.569 48.4286 402.879 48.4286C403.433 48.4286 403.791 48.3918 403.791 48.3918V54.1912C403.791 54.1912 403.035 54.309 401.926 54.309C398.673 54.309 392.365 53.4589 392.365 46.769V39.7699V39.7663Z" fill="white"/>
<path d="M418.115 41.7018H418.394V41.3522C418.394 39.689 417.084 39.148 415.38 39.148C412.801 39.148 409.864 41.0431 409.864 41.0431L407.482 36.3256C407.482 36.3256 411.014 33.735 416.053 33.735C421.807 33.735 425.257 36.7892 425.257 41.8564V54.1139H418.986V52.9143C418.986 52.2556 419.064 51.6778 419.064 51.6778H418.986C418.986 51.6778 417.479 54.5775 413.191 54.5775C409.384 54.5775 406.247 52.101 406.247 48.1599C406.247 42.3605 414.937 41.7018 418.111 41.7018H418.115ZM415.101 49.4736C416.887 49.4736 418.472 47.5785 418.472 45.9557V45.5288H417.836C415.655 45.5288 413.154 46.1471 413.154 47.8103C413.154 48.7377 413.75 49.4736 415.097 49.4736H415.101Z" fill="white"/>
<path d="M430.017 34.1987H436.879V54.1139H430.017V34.1987ZM430.095 26.4637H436.801V31.6854H430.095V26.4637Z" fill="white"/>
<path d="M441.959 34.1986H448.547V35.9392C448.547 36.5979 448.468 37.1756 448.468 37.1756H448.547C449.499 35.6301 451.442 33.735 455.052 33.735C459.179 33.735 462.391 35.5896 462.391 41.1977V54.1139H455.528V42.4341C455.528 40.5795 454.773 39.803 453.266 39.803C451.122 39.803 449.812 40.9622 449.216 42.6659C448.937 43.4387 448.818 44.3292 448.818 45.297V54.1139H441.956V34.1986H441.959Z" fill="white"/>
<path d="M477.508 41.7018H477.787V41.3522C477.787 39.689 476.477 39.148 474.773 39.148C472.194 39.148 469.257 41.0431 469.257 41.0431L466.875 36.3256C466.875 36.3256 470.407 33.735 475.446 33.735C481.2 33.735 484.65 36.7892 484.65 41.8564V54.1139H478.379V52.9143C478.379 52.2556 478.457 51.6778 478.457 51.6778H478.379C478.379 51.6778 476.872 54.5775 472.584 54.5775C468.777 54.5775 465.64 52.101 465.64 48.1599C465.64 42.3605 474.33 41.7018 477.504 41.7018H477.508ZM474.494 49.4736C476.28 49.4736 477.865 47.5785 477.865 45.9557V45.5288H477.229C475.048 45.5288 472.547 46.1471 472.547 47.8103C472.547 48.7377 473.143 49.4736 474.49 49.4736H474.494Z" fill="white"/>
<path d="M489.41 26.4637H496.273V34.1582C496.273 35.1628 496.194 35.8583 496.194 35.8583H496.273C496.273 35.8583 498.178 33.7314 501.788 33.7314C507.344 33.7314 510.992 37.9852 510.992 44.171C510.992 50.3568 506.905 54.5739 501.468 54.5739C497.698 54.5739 495.874 52.3329 495.874 52.3329H495.796C495.796 52.3329 495.837 52.837 495.837 53.4552V54.1139H489.41V26.4637ZM500.084 49.0468C502.227 49.0468 504.092 47.3467 504.092 44.2888C504.092 41.2308 502.465 39.3762 500.084 39.3762C498.022 39.3762 496.075 40.8445 496.075 44.2888C496.075 46.688 497.385 49.0468 500.084 49.0468Z" fill="white"/>
<path d="M514.683 34.1987H521.546V54.1139H514.683V34.1987ZM514.761 26.4637H521.468V31.6854H514.761V26.4637Z" fill="white"/>
<path d="M526.347 26.4637H533.21V45.8748C533.21 47.7699 533.567 48.4286 535.115 48.4286C535.55 48.4286 535.949 48.3918 535.949 48.3918V54.1912C535.949 54.1912 534.996 54.309 533.887 54.309C530.236 54.309 526.347 53.4589 526.347 46.769V26.4637Z" fill="white"/>
<path d="M539.439 34.1987H546.302V54.1139H539.439V34.1987ZM539.518 26.4637H546.224V31.6854H539.518V26.4637Z" fill="white"/>
<path d="M552.413 39.7663H549.793V34.5446H552.61V28.8224H559.276V34.5446H563.559V39.7663H559.276V45.8748C559.276 48.1195 561.617 48.4286 562.927 48.4286C563.481 48.4286 563.838 48.3918 563.838 48.3918V54.1912C563.838 54.1912 563.083 54.309 561.974 54.309C558.721 54.309 552.413 53.4589 552.413 46.769V39.7699V39.7663Z" fill="white"/>
<path d="M567.527 55.9317C567.527 55.9317 568.636 56.6677 569.629 56.6677C570.742 56.6677 572.208 56.3586 572.923 54.6585L573.321 53.7312L564.631 34.2023H572.409L575.424 43.3688C575.781 44.4507 576.179 46.4635 576.179 46.4635H576.257C576.257 46.4635 576.656 44.5684 576.931 43.4865L579.51 34.206H587.009L578.636 56.2482C576.931 60.6934 573.358 62.2426 570.106 62.2426C567.407 62.2426 565.346 60.8517 565.346 60.8517L567.527 55.9391V55.9317Z" fill="white"/>
</g>
<defs>
<clipPath id="clip0_640_5145">
<rect width="570.117" height="36.2353" fill="white" transform="translate(47.9417 26)"/>
</clipPath>
</defs>
</svg>
